
<?xml version="1.0" encoding="UTF-8" standalone="no"?>
<!DOCTYPE svg PUBLIC "-//W3C//DTD SVG 1.1//EN" "http://www.w3.org/Graphics/SVG/1.1/DTD/svg11.dtd">
<svg version="1.1" xmlns="http://www.w3.org/2000/svg" xmlns:xlink="http://www.w3.org/1999/xlink"
  preserveAspectRatio="xMidYMid meet"
  viewBox="344.5639097744361 330.27819548872174 111.73684210526318 91.21804511278197"
  width="53.87" height="43.61">
  <metadata>
    Created by potrace 1.16, written by Peter Selinger 2001-2019
  </metadata>
  <g transform="translate(0.000000,512.000000) scale(0.100000,-0.100000)"
     fill="#8B0000" stroke="none">
    <path d="M1004 4945 c-68 -53 -104 -216 -104 -466 0 -169 18 -288 59 -394 25
-65 26 -72 10 -68 -18 5 -18 2 2 -53 11 -33 25 -72 29 -87 l9 -28 -36 31 c-19
17 -37 29 -39 27 -3 -2 16 -44 41 -93 54 -106 64 -144 41 -144 -22 0 -20 -10
10 -41 l26 -28 -71 -35 c-39 -20 -71 -38 -71 -41 0 -3 27 -2 60 2 33 3 60 3
60 -1 0 -14 -170 -193 -196 -207 l-26 -14 33 -8 c19 -4 58 -11 87 -15 l53 -7
-76 -65 c-42 -36 -96 -77 -121 -91 -24 -14 -46 -28 -49 -31 -13 -13 124 15
175 35 l58 24 -42 -51 c-69 -85 -218 -326 -201 -326 3 0 42 27 86 60 45 34 84
59 86 56 2 -2 -16 -44 -40 -92 -70 -142 -106 -274 -122 -454 l-7 -75 50 77
c47 71 200 243 209 234 2 -2 -10 -25 -27 -52 -69 -112 -78 -365 -22 -624 l8
-35 54 85 c47 72 55 81 58 60 8 -69 40 -190 85 -330 l51 -155 7 90 c3 50 13
106 22 125 l15 35 1 -46 c2 -96 85 -324 200 -544 29 -55 49 -91 46 -80 -20 65
-51 376 -36 360 5 -6 23 -59 40 -120 18 -60 48 -148 68 -195 35 -83 91 -190
99 -190 2 0 -6 24 -17 53 -63 156 -106 293 -96 303 2 2 17 -15 34 -39 17 -23
74 -90 126 -149 214 -240 312 -385 393 -578 29 -68 29 -58 4 45 -19 81 -41
149 -78 242 -18 43 -19 53 -8 63 11 8 22 -3 51 -56 21 -37 85 -140 144 -228
58 -89 132 -212 163 -275 63 -124 70 -125 34 -5 -57 190 -144 391 -210 484
-18 25 -36 52 -41 60 -12 19 92 -92 143 -154 70 -84 175 -305 241 -509 13 -37
25 -67 27 -67 3 0 4 71 4 157 -1 169 21 437 45 538 7 33 28 106 45 160 l31
100 192 188 c154 151 193 184 198 170 4 -12 9 2 14 37 5 37 10 49 14 36 6 -15
17 -8 76 50 39 37 73 67 78 66 4 -1 7 5 7 13 0 8 4 15 9 15 13 0 23 -62 11
-74 -7 -7 -10 -2 -11 14 -1 14 -5 -12 -9 -57 -12 -142 -36 -189 -255 -518
-111 -165 -218 -331 -239 -370 -44 -82 -45 -84 109 115 66 85 162 198 213 250
l93 95 -101 -125 c-56 -69 -126 -160 -156 -202 -84 -118 -168 -306 -209 -466
-23 -91 -14 -96 19 -10 43 112 194 388 212 388 2 0 -8 -25 -22 -56 -36 -81
-100 -272 -107 -319 l-7 -40 15 37 c22 60 109 227 167 324 30 49 78 131 107
181 29 51 57 95 63 99 14 9 36 -15 22 -24 -28 -19 -103 -231 -118 -337 -5 -40
-5 -40 13 10 66 182 188 369 380 585 42 47 88 100 103 119 l26 34 -4 -59 c-2
-32 -12 -93 -23 -134 -11 -41 -18 -76 -16 -78 2 -2 18 25 36 59 39 79 172 309
211 367 16 23 26 42 21 41 -20 -3 -44 2 -40 9 6 9 -19 33 -27 25 -3 -4 -6 1
-6 9 0 9 -4 18 -10 20 -5 2 -12 17 -14 33 -3 17 -9 47 -14 67 -8 29 -7 35 4
31 10 -4 12 4 7 33 -4 27 -3 35 6 30 8 -5 10 7 7 43 -2 28 1 51 6 51 5 0 6 5
2 12 -5 7 -3 8 6 3 7 -4 15 -2 20 4 4 8 16 0 34 -23 15 -20 36 -36 46 -36 25
0 67 -87 81 -169 11 -57 4 -133 -16 -196 -12 -38 97 180 128 255 17 41 42 124
57 185 l26 110 27 -56 c15 -30 31 -75 35 -99 l8 -45 13 70 c18 96 25 295 10
295 -6 0 -8 -7 -5 -17 6 -15 5 -15 -13 1 -11 10 -25 15 -32 10 -8 -5 -10 -3
-4 6 5 8 1 18 -9 26 -10 7 -19 24 -20 37 0 14 -4 24 -7 22 -13 -9 -8 121 6
142 12 18 12 24 2 30 -18 11 -71 83 -62 83 36 0 206 -175 287 -295 34 -50 39
-55 35 -30 -3 17 -9 59 -13 95 -9 93 -57 274 -93 354 -23 49 -27 67 -16 62 8
-3 15 -3 15 0 0 17 -57 98 -88 125 -89 79 -372 246 -393 233 -8 -4 -9 -3 -5 4
10 17 -84 113 -163 166 -57 39 -76 47 -141 55 -41 5 -100 18 -130 30 -65 25
-121 27 -180 6 -38 -14 -41 -14 -29 1 7 8 31 25 53 37 62 32 152 30 238 -6 37
-16 84 -30 105 -33 l38 -5 -35 14 c-19 8 -63 26 -97 40 -47 20 -79 27 -129 27
-105 0 -140 -15 -213 -89 -62 -64 -64 -65 -58 -34 10 51 33 78 122 147 130
101 127 99 177 86 24 -7 91 -34 150 -61 59 -27 111 -49 115 -49 27 1 -203 119
-234 121 -10 0 1 7 25 16 24 8 42 16 40 18 -5 5 -180 -15 -216 -25 l-35 -9 24
26 c42 46 -10 6 -91 -70 -80 -76 -100 -120 -100 -226 0 -39 -7 -66 -24 -95
-30 -53 -75 -247 -76 -327 0 -14 23 -73 51 -130 72 -147 128 -344 129 -449 0
-63 -43 -133 -132 -214 -77 -71 -80 -84 -7 -38 57 37 114 103 135 159 14 35
19 41 31 31 72 -60 0 -174 -170 -268 -42 -23 -77 -44 -77 -46 0 -5 92 31 138
55 37 19 153 132 182 179 17 26 90 76 75 52 -4 -8 -23 -36 -41 -61 -19 -25
-40 -70 -48 -100 -8 -30 -19 -66 -25 -81 -7 -20 -7 -28 2 -32 7 -2 4 -5 -5 -5
-11 -1 -28 -21 -42 -49 -29 -58 -102 -127 -161 -153 -76 -33 -121 -34 -210 -4
-90 31 -170 69 -180 86 -11 17 45 69 100 94 28 12 62 35 77 51 14 16 38 37 52
47 37 25 94 150 101 222 l6 60 -20 -25 c-16 -20 -21 -22 -21 -8 0 29 -59 87
-98 98 -20 5 -76 10 -124 10 l-88 0 -1 418 c0 229 -4 469 -7 532 -4 63 -6 213
-4 333 2 175 5 217 16 215 7 -2 52 40 99 93 64 71 101 104 149 129 l63 34 -71
-77 c-74 -79 -112 -145 -121 -206 -5 -35 -4 -35 20 14 31 64 129 195 196 263
58 58 53 63 -31 28 -51 -21 -58 -22 -58 -7 1 31 46 126 95 201 72 108 73 111
9 45 -43 -44 -71 -88 -110 -170 -40 -83 -66 -123 -105 -160 -28 -28 -71 -76
-95 -109 l-44 -58 0 159 0 158 40 60 c22 33 40 69 40 81 0 11 17 56 39 100 47
98 116 171 189 201 l52 22 0 -23 c0 -21 6 -24 57 -30 31 -4 87 -13 124 -22
l66 -15 -51 -51 -51 -51 50 38 c28 21 55 42 60 45 6 4 23 -1 38 -10 l28 -18
-66 -31 c-73 -34 -139 -82 -156 -112 -7 -14 4 -10 39 16 27 19 75 46 107 61
l58 25 -58 -62 c-52 -57 -93 -124 -82 -135 2 -3 24 0 48 5 24 6 67 10 94 10
l50 0 -75 -71 c-41 -39 -66 -68 -55 -63 60 23 140 45 163 45 15 -1 50 -13 79
-28 l52 -27 -77 0 c-42 0 -85 -5 -94 -10 -13 -8 -3 -10 40 -10 64 -1 165 -41
141 -56 -10 -6 -9 -9 6 -14 51 -17 93 -38 124 -64 l34 -28 -64 13 c-76 16
-233 19 -224 4 3 -5 16 -10 28 -10 36 0 180 -54 251 -94 37 -21 66 -39 64 -42
-2 -2 -29 3 -60 11 -56 15 -178 34 -178 29 0 -2 19 -13 43 -25 46 -24 187
-117 187 -124 0 -3 -12 0 -26 5 -48 19 -39 10 24 -24 63 -34 160 -104 183
-132 9 -11 -2 -10 -41 6 -73 29 -82 21 -21 -18 28 -18 92 -79 143 -135 162
-177 232 -249 259 -262 25 -13 26 -13 21 11 -2 14 0 24 7 24 7 0 -12 24 -41
52 -43 44 -49 53 -32 56 10 1 45 7 76 13 l57 11 -30 25 c-16 14 -63 65 -104
113 l-74 89 41 3 42 3 -50 25 -49 24 33 35 c39 42 40 51 7 51 -14 0 -25 1 -25
3 0 7 43 113 49 122 4 6 20 33 36 60 27 49 28 50 4 30 -13 -11 -36 -30 -51
-44 l-27 -24 35 98 c27 76 31 96 19 91 -12 -4 -15 -1 -11 12 59 190 81 360 73
539 -14 281 -75 413 -190 413 -69 0 -160 -60 -343 -225 -148 -134 -206 -168
-309 -180 l-60 -8 24 27 c29 31 28 31 -32 10 -26 -9 -51 -14 -57 -12 -6 2 1
20 15 41 14 20 24 37 21 37 -2 0 -28 -11 -58 -25 -55 -26 -93 -31 -117 -16
-11 7 -10 13 4 35 l17 26 -33 -14 c-36 -14 -119 -29 -119 -22 0 3 4 16 10 30
10 28 13 29 -83 -13 -80 -35 -86 -25 -32 50 19 27 33 49 31 49 -2 0 -33 -20
-70 -44 -57 -39 -75 -46 -136 -52 -39 -4 -87 -15 -107 -25 -31 -16 -38 -16
-57 -4 -11 8 -54 21 -95 29 -51 11 -92 27 -129 52 l-54 36 36 -48 c20 -26 36
-50 36 -54 0 -10 -57 3 -134 29 l-58 21 15 -24 c19 -29 13 -36 -29 -36 -18 0
-36 -4 -39 -10 -11 -18 -73 -11 -131 15 -31 14 -58 25 -59 25 -2 0 6 -18 18
-39 12 -22 18 -43 14 -47 -4 -4 -28 2 -53 15 -26 12 -48 20 -50 18 -3 -2 5
-16 17 -30 25 -32 21 -33 -81 -16 -84 13 -154 52 -265 145 -255 215 -316 254
-394 254 -34 0 -54 -7 -77 -25z m165 -102 c62 -36 193 -154 258 -232 55 -66
200 -279 244 -359 l23 -43 -29 -24 c-45 -36 -61 -39 -96 -15 -16 12 -32 20
-34 18 -3 -2 7 -31 20 -64 l24 -59 -43 -3 c-35 -2 -63 6 -141 43 -86 41 -183
110 -171 122 3 3 31 -11 63 -31 53 -33 201 -91 210 -82 2 2 -34 18 -79 37 -46
18 -99 43 -118 55 -49 31 -104 90 -95 103 3 6 3 10 -2 9 -4 -2 -32 23 -62 55
-30 31 -52 57 -49 57 2 0 41 -16 86 -35 45 -20 106 -38 135 -41 l52 -4 -45 13
c-62 18 -114 44 -145 72 -35 34 -31 48 8 26 17 -11 43 -22 57 -25 15 -4 10 1
-14 13 -59 31 -104 69 -121 102 l-15 29 52 -23 c77 -34 246 -89 260 -85 13 5
-48 31 -167 73 -100 36 -161 89 -150 132 8 37 32 73 52 80 9 4 34 2 55 -4 38
-10 39 -10 21 9 -28 31 -68 48 -112 48 -50 0 -83 -36 -102 -112 -21 -82 -18
-356 4 -437 27 -94 56 -151 104 -198 48 -48 37 -56 -21 -16 l-40 26 24 -39
c83 -135 171 -220 250 -241 l35 -10 -60 -39 c-78 -50 -163 -90 -172 -80 -5 4
8 22 28 40 l36 33 -33 18 c-61 32 -90 74 -109 155 -10 41 -33 119 -52 173 -47
139 -56 215 -50 402 7 228 41 347 108 383 29 15 60 9 118 -25z m2881 22 c38
-20 74 -98 96 -205 13 -67 15 -120 11 -250 -5 -182 -27 -291 -86 -428 -17 -40
-26 -70 -21 -67 40 25 -10 -93 -66 -155 l-38 -42 42 -40 c35 -32 41 -42 31
-54 -6 -8 -20 -14 -29 -14 -26 0 -262 158 -255 171 4 5 1 17 -7 26 -11 15 -11
16 5 10 19 -7 23 3 7 19 -7 7 12 19 56 36 54 21 64 23 59 9 -25 -58 5 -64 39
-7 14 25 58 82 98 128 70 82 90 116 103 174 4 16 -6 2 -23 -33 -28 -56 -74
-104 -88 -90 -3 3 10 25 29 50 37 48 78 160 98 264 16 85 7 293 -16 356 -32
89 -95 110 -176 59 -56 -36 -166 -154 -198 -212 -21 -38 -11 -30 72 57 105
109 153 141 187 123 11 -6 22 -23 26 -38 3 -15 8 -33 10 -40 8 -25 -26 -71
-72 -98 -25 -15 -98 -44 -162 -65 -65 -21 -107 -38 -94 -38 30 -1 185 43 247
69 27 11 53 19 58 17 17 -5 -54 -77 -102 -103 -25 -13 -35 -22 -21 -18 14 3
36 13 48 21 13 8 26 12 29 9 11 -11 -63 -66 -121 -91 -57 -24 -58 -25 -21 -20
22 3 71 22 109 41 l68 35 -33 -42 c-19 -23 -50 -53 -69 -66 -19 -14 -27 -23
-17 -19 22 7 17 -3 -35 -65 -28 -34 -61 -57 -118 -85 -44 -21 -78 -39 -76 -41
8 -8 133 49 184 82 28 20 52 32 52 27 0 -15 -64 -69 -115 -97 -27 -16 -64 -41
-81 -57 -36 -34 -75 -38 -122 -14 l-32 17 16 37 c9 20 19 45 22 55 5 18 4 18
-29 2 -32 -17 -34 -17 -76 5 -24 13 -43 27 -43 33 0 18 100 199 149 269 102
147 308 345 406 389 49 23 49 23 85 4z m-2445 -287 c59 -39 251 -228 230 -228
-3 0 -20 7 -38 16 -76 39 -160 110 -272 230 -113 121 -116 126 -55 78 36 -28
97 -72 135 -96z m660 17 c93 -28 189 -151 210 -268 l7 -38 -34 6 c-27 5 -38 2
-52 -14 -11 -12 -14 -21 -9 -21 15 0 89 -116 108 -170 27 -72 14 -159 -32
-231 l-37 -57 -46 67 c-63 94 -99 136 -145 173 -34 27 -31 22 19 -32 71 -78
154 -204 162 -245 3 -19 -2 -46 -14 -73 l-20 -44 -32 47 c-74 107 -280 285
-366 315 -24 8 -26 8 -10 -3 138 -88 183 -123 252 -191 45 -45 96 -103 113
-131 45 -71 74 -174 69 -240 -4 -52 -8 -59 -109 -225 -21 -35 -21 -35 18 6 21
23 54 68 73 99 30 51 34 67 34 124 0 36 -3 93 -8 126 -7 50 -4 69 13 116 20
54 74 125 97 131 16 4 25 -629 17 -1124 l-6 -378 -86 0 c-68 0 -93 -4 -118
-20 -42 -25 -63 -67 -64 -127 l0 -48 -20 50 c-39 96 -50 80 -24 -33 20 -86 44
-129 104 -185 28 -27 51 -53 51 -58 0 -5 23 -21 52 -35 55 -28 118 -74 118
-86 0 -21 -240 -118 -292 -118 -46 0 -128 31 -173 66 l-46 35 -55 -25 c-30
-14 -53 -22 -50 -17 3 4 24 16 48 26 24 11 45 20 47 22 3 2 -5 13 -17 26 -12
13 -28 41 -35 62 -11 31 -20 41 -43 46 -23 5 -25 7 -6 8 25 1 28 11 10 29 -17
17 -3 15 35 -5 28 -14 30 -14 19 -1 -7 9 -24 19 -38 22 -23 6 -25 10 -23 71 1
35 -2 70 -7 78 -5 7 2 -1 16 -17 78 -96 128 -139 198 -173 40 -19 75 -33 78
-30 3 2 -29 25 -70 51 -87 54 -183 145 -192 182 -7 27 14 75 34 82 5 1 14 -11
20 -27 18 -51 71 -120 120 -156 77 -57 79 -39 4 30 -46 43 -80 85 -98 121
l-27 56 17 96 c9 54 32 131 50 173 32 75 141 251 233 378 34 47 40 60 23 48
-14 -9 -31 -17 -40 -17 -22 -1 -199 -280 -237 -376 -19 -47 -40 -124 -49 -185
-25 -162 -34 -167 -105 -65 -60 86 -118 147 -172 176 l-42 23 56 -54 c60 -59
101 -122 117 -182 8 -28 8 -35 -1 -30 -7 4 -46 29 -87 55 -78 50 -104 60 -77
30 18 -19 56 -100 57 -119 0 -8 -16 -7 -56 4 -81 21 -76 11 9 -17 39 -13 64
-25 55 -28 -9 -2 -27 2 -40 8 -22 11 -21 10 2 -9 14 -11 27 -21 30 -21 3 0 13
-13 23 -29 l17 -29 -38 13 c-50 17 -92 26 -92 21 0 -2 30 -14 66 -26 36 -12
68 -29 71 -37 3 -8 19 -21 35 -27 24 -11 6 -12 -107 -8 -130 4 -138 4 -168
-18 l-32 -23 30 33 c17 18 44 41 60 51 l30 19 -35 1 c-19 0 -43 4 -54 8 -17 6
-15 10 14 34 17 15 29 27 27 27 -3 0 -40 -7 -83 -16 -95 -20 -141 -42 -201
-96 l-44 -42 20 53 c31 77 60 131 93 174 l30 37 -83 -29 c-46 -17 -85 -28 -87
-26 -3 3 0 6 48 46 21 17 22 19 3 10 -12 -6 -24 -11 -28 -11 -11 0 25 59 47
75 22 17 22 17 -22 11 -24 -4 -70 -19 -102 -35 -32 -15 -58 -25 -58 -21 0 3
18 35 39 71 38 62 38 64 17 67 -12 2 -52 -3 -88 -11 l-67 -13 19 26 c32 45
145 145 179 159 23 10 30 18 26 31 -4 12 7 25 36 44 22 15 39 29 37 31 -2 2
-35 0 -73 -5 -39 -5 -85 -9 -104 -10 l-33 0 36 44 36 44 -32 11 c-18 5 -42 11
-53 13 -15 2 -4 13 45 46 36 23 84 50 106 59 41 17 42 17 47 79 9 118 52 167
229 257 135 68 178 63 248 -30 46 -60 98 -91 167 -99 80 -9 92 -13 104 -37 12
-21 11 -21 -8 -4 -36 31 -45 18 -14 -22 50 -63 102 -211 74 -211 -10 0 -107
-116 -146 -175 -23 -36 -61 -125 -53 -125 2 0 17 28 34 63 33 64 122 190 130
183 2 -3 -7 -20 -21 -38 -33 -43 -61 -109 -76 -177 -17 -82 -7 -71 22 21 26
84 68 161 113 209 27 29 64 162 64 231 0 48 -25 149 -49 197 -10 20 -23 76
-30 125 -7 49 -18 104 -25 121 -17 39 -65 95 -119 137 -41 32 -42 32 -24 6 28
-45 20 -48 -45 -18 -35 16 -76 32 -93 35 l-30 6 33 -18 c17 -9 32 -20 32 -25
0 -4 -15 -8 -32 -8 -30 0 -289 -88 -304 -103 -10 -9 65 3 115 19 56 18 71 18
71 -1 0 -11 15 -7 63 15 88 42 137 39 194 -12 21 -20 22 -20 17 -1 -5 17 -1
19 23 16 21 -4 38 -18 61 -52 47 -69 41 -89 -10 -37 -24 23 -29 26 -11 6 28
-30 63 -95 63 -116 0 -3 -28 20 -63 53 -90 84 -155 100 -281 67 -40 -11 -85
-14 -131 -11 -51 3 -63 2 -45 -5 14 -5 57 -7 95 -4 211 19 216 19 260 2 70
-27 77 -47 10 -28 -54 15 -55 15 -138 -17 -62 -24 -102 -33 -153 -34 -38 -1
-71 -5 -74 -8 -3 -3 -34 -25 -70 -49 -36 -24 -90 -67 -120 -96 -39 -36 -94
-71 -187 -118 -73 -36 -162 -84 -198 -106 -36 -22 -65 -37 -65 -34 0 3 85 92
190 197 104 106 190 192 190 193 0 2 -205 -34 -235 -41 -19 -5 -26 -4 -20 2
23 23 135 103 198 143 69 43 86 65 27 35 -34 -18 -130 -36 -130 -26 0 6 32 31
140 110 19 14 94 56 165 94 72 37 119 65 105 61 -14 -3 -75 -32 -137 -63 -103
-53 -110 -55 -92 -29 39 54 216 204 302 255 l42 24 -68 -6 c-37 -4 -82 -11
-99 -16 -18 -5 -34 -7 -36 -4 -7 7 192 103 254 121 73 23 52 28 -90 22 l-98
-4 28 23 c16 13 48 30 72 40 27 10 39 19 31 24 -25 15 72 53 138 54 45 0 57 3
45 10 -9 5 -54 10 -98 10 -84 0 -85 2 -22 35 45 24 134 26 204 5 27 -8 53 -15
58 -15 17 0 -58 71 -101 97 -24 14 -43 26 -43 28 0 2 34 1 75 -2 43 -3 75 -2
75 3 0 16 -51 87 -93 132 -23 23 -38 42 -35 42 21 0 167 -75 191 -97 31 -30
34 -20 11 35 -19 47 -58 88 -107 113 -21 11 -35 23 -33 28 11 18 124 44 193
45 59 1 73 4 73 17 0 33 14 35 85 14z m1215 -68 c0 -1 -26 -27 -57 -57 l-58
-55 55 58 c50 53 60 62 60 54z m-1483 -113 c-1 -2 -39 9 -82 24 l-80 28 30 20
30 20 53 -44 c29 -25 51 -46 49 -48z m540 -66 c-3 -7 -5 -2 -5 12 0 14 2 19 5
13 2 -7 2 -19 0 -25z m23 -103 c0 -8 -4 -15 -10 -15 -5 0 -7 7 -4 15 4 8 8 15
10 15 2 0 4 -7 4 -15z m-40 -16 c0 -11 -4 -18 -10 -14 -5 3 -7 12 -3 20 7 21
13 19 13 -6z m1273 -195 c-6 -35 -5 -36 17 -24 35 19 15 -5 -42 -51 -28 -22
-54 -36 -57 -32 -3 4 -24 17 -46 27 l-40 19 30 7 c43 9 86 34 114 64 14 14 26
26 27 26 2 0 0 -16 -3 -36z m-2353 -49 c27 -9 25 -25 -2 -25 -36 0 -84 35 -96
68 l-11 31 45 -34 c24 -18 53 -36 64 -40z m-80 -70 c17 -20 7 -19 -39 5 -36
18 -51 36 -51 62 0 10 67 -40 90 -67z m2486 31 c-19 -29 -70 -59 -93 -54 -10
2 6 18 43 45 32 22 61 39 63 37 2 -2 -4 -15 -13 -28z m-2521 -108 c5 -4 0 -8
-12 -8 -23 0 -93 60 -93 79 0 10 43 -20 105 -71z m2601 -243 c47 -23 271 -235
249 -235 -17 0 -326 227 -340 250 -12 19 41 10 91 -15z m-611 -304 c20 -8 20
-8 -1 -15 -23 -7 -54 1 -54 15 0 11 27 11 55 0z m-1350 -10 c7 -12 -12 -24
-25 -16 -11 7 -4 25 10 25 5 0 11 -4 15 -9z m1250 -1 c3 -6 -1 -13 -10 -16
-19 -8 -30 0 -20 15 8 14 22 14 30 1z m-1198 -32 c29 -28 29 -59 -1 -87 -51
-48 -142 -29 -177 38 -17 32 -17 35 -1 47 27 21 62 17 62 -5 0 -20 35 -51 57
-51 7 0 16 18 19 40 4 22 9 40 12 40 3 0 16 -10 29 -22z m1144 -18 c15 -42 54
-41 77 0 14 25 23 30 47 28 40 -4 44 -35 10 -76 -34 -40 -85 -57 -127 -43 -67
24 -86 64 -46 101 28 25 27 26 39 -10z m371 -15 c79 -32 208 -108 238 -140 12
-13 27 -22 32 -19 5 3 8 0 7 -7 -2 -8 1 -44 5 -81 l7 -66 72 -22 c40 -12 80
-24 91 -26 35 -7 29 -14 -11 -14 -22 0 -62 7 -89 15 -67 20 -67 19 -5 -15 62
-34 143 -95 184 -138 l28 -29 -53 4 c-29 3 -74 8 -100 12 l-48 8 65 -59 c36
-33 65 -63 65 -66 0 -4 -60 -6 -132 -5 l-133 2 44 -19 c95 -44 112 -54 156
-92 52 -46 56 -59 18 -53 -16 2 -45 6 -66 9 l-38 5 58 -63 c32 -34 66 -76 75
-92 l16 -29 -76 37 c-42 20 -101 44 -131 52 l-53 16 46 -50 c56 -59 60 -83 9
-42 -48 37 -120 78 -153 86 -14 4 1 -7 32 -25 73 -40 130 -89 167 -143 30 -43
72 -138 85 -191 6 -26 4 -25 -22 15 -16 25 -54 68 -85 97 -56 51 -178 136
-185 129 -4 -5 44 -102 68 -136 10 -14 25 -43 34 -65 l17 -40 -33 32 c-58 56
-121 78 -218 77 -47 0 -96 -6 -110 -12 -22 -10 -18 -11 23 -6 32 4 47 3 47 -5
0 -8 -26 -11 -80 -10 -44 2 -80 6 -80 10 0 13 109 117 131 124 15 5 18 10 10
15 -9 5 5 23 41 55 29 26 39 38 22 27 -17 -12 -46 -36 -65 -55 -30 -30 -119
-76 -119 -62 0 3 6 20 14 38 15 36 46 67 91 90 17 9 24 16 17 17 -7 0 -22 -5
-34 -11 -42 -22 -26 0 29 42 77 57 79 59 67 59 -6 0 -49 -25 -95 -56 -46 -31
-108 -70 -137 -86 l-52 -30 10 28 c21 54 64 119 114 173 36 38 43 50 26 41
-54 -28 -111 -84 -166 -165 -32 -47 -63 -84 -68 -82 -6 2 -14 35 -17 73 -10
101 -56 285 -100 397 -40 100 -45 117 -31 117 11 0 162 -211 195 -273 15 -28
25 -41 21 -27 -12 45 -35 83 -127 208 -101 138 -97 118 -39 237 40 82 67 105
124 105 74 0 116 23 194 105 39 41 76 75 83 75 6 0 39 -11 73 -25z m-1432
-449 c0 -2 -8 -10 -17 -17 -16 -13 -17 -12 -4 4 13 16 21 21 21 13z m1221
-538 c-25 -36 -75 -78 -94 -78 -3 0 -2 12 2 28 5 17 25 39 56 60 28 17 53 32
57 32 4 0 -6 -19 -21 -42z m-1489 -32 c42 -32 78 -89 65 -102 -3 -3 -23 4 -44
16 -27 15 -44 35 -60 71 -12 27 -18 49 -14 49 5 0 28 -15 53 -34z m987 -2 c24
-20 31 -34 31 -61 0 -36 0 -36 -20 -18 -13 11 -41 20 -75 23 -52 4 -55 6 -55
31 0 15 5 32 12 39 21 21 74 14 107 -14z m591 -28 c0 -4 -78 -56 -84 -56 -3 0
-3 7 1 16 7 19 83 56 83 40z m-200 -50 c0 -2 -7 -9 -15 -16 -13 -11 -14 -10
-9 4 5 14 24 23 24 12z m-1345 -26 c27 -17 34 -29 40 -66 3 -25 5 -48 2 -50
-6 -6 -49 52 -71 93 -26 51 -21 54 29 23z m797 -85 c2 -19 3 -35 1 -35 -9 0
-22 41 -17 54 9 23 11 20 16 -19z m786 7 l33 -27 -123 -2 c-70 -1 -114 2 -103
7 11 4 29 17 39 29 30 33 111 29 154 -7z m-1034 12 c28 -11 18 -34 -14 -34
-16 0 -33 0 -37 -1 -4 0 -9 4 -11 9 -2 7 17 20 45 31 1 1 8 -2 17 -5z m364
-26 c4 -21 -19 -24 -50 -7 -17 9 -18 13 -7 20 21 14 53 6 57 -13z m794 -60
c30 -21 69 -71 72 -93 1 -8 5 -18 9 -21 4 -4 7 -31 7 -61 0 -40 -4 -53 -15
-53 -15 0 -19 20 -15 68 1 12 -4 22 -12 22 -10 0 -9 3 2 10 12 8 10 10 -10 10
-15 0 -32 6 -39 13 -11 10 -13 10 -7 0 12 -22 -8 -14 -22 7 -7 12 -17 18 -22
15 -6 -3 -10 -1 -10 6 0 7 -3 10 -6 6 -4 -3 -13 0 -20 8 -16 15 -19 29 -5 21
5 -3 12 1 15 10 7 18 28 9 24 -11 -2 -8 1 -13 7 -12 13 3 16 25 4 33 -6 3 -5
11 2 20 9 11 7 14 -9 14 -12 0 -23 4 -26 9 -9 14 48 -1 76 -21z m-288 -23 c4
-12 -2 -15 -27 -14 -23 1 -26 3 -9 6 12 2 22 9 22 14 0 14 7 11 14 -6z m194 8
c-10 -2 -26 -2 -35 0 -10 3 -2 5 17 5 19 0 27 -2 18 -5z m-1655 -30 c-7 -2
-19 -2 -25 0 -7 3 -2 5 12 5 14 0 19 -2 13 -5z m1621 -9 c5 -14 4 -15 -9 -4
-17 14 -19 20 -6 20 5 0 12 -7 15 -16z m-67 -71 c7 -18 13 -40 13 -50 -1 -17
-2 -17 -15 1 -8 10 -12 23 -8 29 3 6 1 7 -6 3 -6 -4 -9 -13 -5 -19 3 -7 -1 -4
-9 5 -8 10 -18 14 -22 10 -5 -4 -5 -1 -1 6 4 7 12 10 17 6 11 -6 5 38 -7 58
-5 8 0 7 11 -2 10 -8 24 -29 32 -47z m-1430 41 c-3 -3 -12 -4 -19 -1 -8 3 -5
6 6 6 11 1 17 -2 13 -5z m1250 0 c-3 -3 -12 -4 -19 -1 -8 3 -5 6 6 6 11 1 17
-2 13 -5z m261 -44 c48 -43 51 -64 21 -130 -21 -47 -95 -150 -107 -150 -4 0
-15 30 -25 68 -10 37 -20 76 -23 87 -3 13 2 31 14 45 17 22 22 23 37 10 9 -8
21 -23 25 -35 7 -16 9 -13 9 15 1 35 -10 89 -24 122 -11 27 26 11 73 -32z
m-1608 15 c-14 -8 -29 -14 -35 -14 -5 0 1 6 15 14 14 8 30 14 35 14 6 0 -1 -6
-15 -14z m1415 5 c3 -6 -1 -7 -9 -4 -18 7 -21 14 -7 14 6 0 13 -4 16 -10z
m236 -7 c13 -16 12 -17 -3 -4 -17 13 -22 21 -14 21 2 0 10 -8 17 -17z m-1722
-40 c-18 -20 -20 -25 -7 -20 24 9 32 -27 25 -110 l-5 -65 61 58 c40 39 49 45
27 19 -19 -22 -44 -48 -57 -58 -14 -11 -23 -29 -23 -45 l0 -27 -20 30 c-32 46
-48 89 -51 134 -3 35 2 46 31 76 40 41 55 48 19 8z m1432 0 c13 -16 12 -17 -3
-4 -17 13 -22 21 -14 21 2 0 10 -8 17 -17z m489 -93 c0 -5 -5 -10 -11 -10 -5
0 -7 5 -4 10 3 6 8 10 11 10 2 0 4 -4 4 -10z m-1700 -205 c0 -65 81 -317 97
-302 2 3 -10 52 -26 110 -16 58 -33 127 -37 153 l-7 48 41 -33 c97 -76 237
-207 288 -269 50 -61 182 -263 154 -235 -7 6 -20 9 -29 5 -12 -4 -14 -2 -6 9
6 8 2 7 -7 -3 -16 -18 -18 -17 -36 25 -11 25 -37 63 -58 87 -33 37 -39 40 -45
23 -4 -10 -8 -49 -8 -88 l-1 -70 -27 35 c-15 19 -45 53 -65 75 l-37 40 -1 -50
0 -50 -83 127 c-46 69 -115 164 -154 210 -39 45 -80 99 -92 118 -25 42 -28
108 -6 151 l16 30 64 -57 c55 -47 65 -62 65 -89z m720 134 c35 -5 71 -16 79
-22 12 -9 13 -9 7 1 -5 9 7 12 50 12 45 0 55 -3 46 -12 -7 -7 -12 -27 -12 -45
0 -38 -9 -41 -36 -12 l-19 21 -26 -56 -27 -56 -7 37 c-4 21 -10 31 -12 23 -14
-45 -14 -45 -27 -22 -12 23 -13 22 -50 -38 -39 -63 -55 -74 -36 -26 5 15 10
32 10 38 0 12 -60 -64 -79 -99 -6 -13 -16 -23 -21 -23 -5 0 -34 35 -65 78
l-57 77 3 -47 c5 -55 -1 -53 -38 12 -15 28 -31 50 -36 50 -4 0 -13 -11 -19
-25 -14 -32 -35 -17 -44 31 -8 46 -17 49 -53 18 l-31 -26 0 32 c0 17 -4 40
-10 50 -9 17 -4 18 73 20 45 1 102 5 127 9 67 12 236 12 310 0z m156 -194
c-16 -37 -46 -85 -46 -72 0 11 50 107 55 107 3 0 -1 -16 -9 -35z m-198 -135
c-7 -10 -14 -17 -17 -15 -4 4 18 35 25 35 2 0 -1 -9 -8 -20z m-587 -262 c36
-50 12 -29 -52 45 -55 63 -57 67 -15 27 26 -25 57 -57 67 -72z"/>
<path d="M1154 4662 c3 -6 30 -24 59 -42 37 -22 44 -24 25 -8 -35 30 -93 64
-84 50z"/>
<path d="M1425 4405 c17 -8 39 -14 50 -14 11 0 0 7 -25 15 -56 17 -64 17 -25
-1z"/>
<path d="M1470 4317 c0 -2 15 -16 33 -33 l32 -29 -29 33 c-28 30 -36 37 -36
29z"/>
<path d="M1290 4286 c20 -7 51 -16 70 -20 l35 -6 -35 14 c-20 7 -51 16 -70 20
l-35 6 35 -14z"/>
<path d="M3917 4661 c-41 -26 -46 -36 -10 -17 17 9 35 20 38 26 8 13 6 12 -28
-9z"/>
<path d="M3653 4410 c-34 -14 -28 -21 7 -9 17 6 30 13 30 15 0 6 -12 4 -37 -6z"/>
<path d="M3641 4318 c-19 -21 -32 -41 -29 -43 7 -7 71 62 67 72 -2 5 -19 -9
-38 -29z"/>
<path d="M3810 4290 c-8 -5 -10 -10 -5 -10 6 0 17 5 25 10 8 5 11 10 5 10 -5
0 -17 -5 -25 -10z"/>
<path d="M4101 4224 c0 -11 3 -14 6 -6 3 7 2 16 -1 19 -3 4 -6 -2 -5 -13z"/>
<path d="M2230 4359 c28 -33 59 -78 70 -100 11 -21 21 -39 23 -39 1 0 2 21 2
48 -1 56 -18 85 -76 124 -67 45 -74 33 -19 -33z"/>
<path d="M2153 4380 c39 -31 102 -131 133 -212 15 -40 31 -77 36 -83 27 -31
-18 108 -59 180 -29 53 -105 135 -124 135 -6 0 0 -9 14 -20z"/>
<path d="M2255 4063 c13 -12 135 -96 155 -107 8 -4 -3 9 -25 29 -22 20 -62 48
-90 62 -27 14 -45 21 -40 16z"/>
<path d="M1955 3801 c31 -10 106 -51 140 -75 51 -38 61 -40 30 -7 -33 36 -138
92 -169 90 -20 -1 -20 -1 -1 -8z"/>
<path d="M1878 3765 c182 -70 307 -219 321 -384 7 -71 8 -73 15 -38 34 159
-119 367 -315 428 -85 26 -97 23 -21 -6z"/>
<path d="M2165 3730 c47 -55 48 -56 37 -35 -6 11 -23 31 -39 45 l-28 25 30
-35z"/>
<path d="M2196 3234 c-14 -43 -24 -80 -21 -82 3 -3 5 1 5 9 0 9 7 5 19 -10
l18 -24 15 24 c8 13 29 48 47 77 l31 52 -22 9 c-68 25 -64 28 -92 -55z"/>
<path d="M1550 3176 c0 -2 7 -7 16 -10 8 -3 12 -2 9 4 -6 10 -25 14 -25 6z"/>
<path d="M1555 3140 c2 -14 9 -52 15 -84 12 -72 46 -133 101 -180 81 -69 126
-67 197 7 l33 34 -48 12 c-26 7 -53 17 -60 23 -9 7 -21 0 -44 -27 l-32 -36
-39 43 c-32 37 -74 111 -117 208 l-10 25 4 -25z"/>
<path d="M1580 3146 c0 -2 8 -10 18 -17 15 -13 16 -12 3 4 -13 16 -21 21 -21
13z"/>
<path d="M1523 3042 c10 -103 30 -152 92 -232 l47 -59 80 -3 c44 -2 83 -1 87
2 17 13 133 162 129 166 -7 6 -128 -124 -128 -136 0 -6 -35 -10 -80 -10 l-80
0 -40 52 c-61 76 -79 119 -91 211 -15 111 -27 119 -16 9z"/>
<path d="M1424 2855 c0 -110 2 -156 3 -103 2 53 2 143 0 200 -1 57 -3 13 -3
-97z"/>
<path d="M1491 2975 c-3 -86 60 -248 124 -322 l32 -37 -20 -36 -21 -35 25 21
c13 12 32 24 43 28 24 8 87 -9 119 -34 14 -11 29 -20 34 -20 4 0 20 22 35 48
15 26 62 94 104 150 41 57 74 106 71 108 -4 5 -154 -190 -192 -248 l-17 -28
-31 22 c-19 13 -51 23 -84 26 -46 4 -57 9 -78 36 -65 86 -123 226 -138 331 -3
25 -4 23 -6 -10z"/>
<path d="M2449 2853 c-83 -87 -144 -160 -204 -248 l-47 -70 4 -117 c3 -80 8
-122 17 -131 11 -10 12 -6 8 23 -4 19 -9 69 -13 110 -5 69 -4 78 18 110 14 19
57 82 97 139 40 57 99 137 132 178 33 40 59 73 57 73 -2 0 -33 -30 -69 -67z"/>
<path d="M2005 1868 c17 -6 70 -26 119 -45 48 -19 93 -32 99 -30 15 5 -197 87
-224 86 -22 0 -21 -2 6 -11z"/>
<path d="M3489 3103 c-13 -16 -12 -17 4 -4 16 13 21 21 13 21 -2 0 -10 -8 -17
-17z"/>
<path d="M3581 3065 c-5 -85 -54 -191 -124 -267 l-34 -38 -69 7 c-62 5 -72 9
-94 37 -34 43 -115 126 -99 101 8 -12 40 -53 71 -91 l58 -71 75 1 c76 1 76 2
110 41 65 76 126 229 112 283 -4 14 -5 13 -6 -3z"/>
<path d="M3748 2895 c2 -82 6 -152 8 -154 7 -8 2 244 -6 274 -4 17 -5 -37 -2
-120z"/>
<path d="M3258 2937 l-48 -22 37 -30 c97 -79 114 -81 168 -23 38 40 39 40 8
19 -18 -12 -33 -27 -33 -32 0 -6 -5 -7 -10 -4 -6 4 -8 10 -5 15 3 5 -4 7 -15
5 -12 -2 -20 1 -20 10 0 7 -5 15 -11 17 -5 2 -12 12 -14 23 -2 11 -4 22 -5 25
-1 3 -2 8 -1 13 0 4 0 7 -1 6 -2 0 -24 -10 -50 -22z"/>
<path d="M3085 2831 c4 -8 33 -48 63 -90 30 -42 68 -103 85 -137 l30 -61 45
25 45 26 41 -23 41 -22 43 48 c45 50 97 146 108 198 3 19 -8 4 -31 -40 -36
-69 -112 -175 -124 -175 -3 1 -17 7 -31 15 -35 20 -67 18 -101 -5 l-28 -21
-17 33 c-24 47 -139 211 -160 229 -15 11 -16 12 -9 0z"/>
<path d="M3624 2105 c33 -13 61 -23 63 -21 5 5 -93 46 -109 46 -7 0 14 -11 46
-25z"/>
<path d="M1739 1743 c-13 -16 -12 -17 4 -4 9 7 17 15 17 17 0 8 -8 3 -21 -13z"/>
<path d="M2797 4408 c-36 -48 -49 -78 -43 -94 7 -18 26 -18 26 1 0 8 11 39 24
70 14 30 23 55 21 55 -2 0 -15 -15 -28 -32z"/>
<path d="M2816 4271 c-9 -24 -14 -46 -12 -49 8 -7 38 67 33 81 -2 6 -11 -9
-21 -32z"/>
<path d="M3005 4026 c-115 -79 -228 -187 -271 -259 -21 -34 -40 -64 -43 -67
-3 -3 -8 -16 -9 -30 -2 -14 -10 -40 -18 -58 -7 -19 -28 -82 -45 -140 -30 -105
-31 -111 -32 -325 l0 -218 69 -67 c44 -42 96 -108 138 -174 38 -60 70 -108 72
-108 7 0 -33 76 -92 175 -29 50 -56 103 -60 119 -6 25 -5 27 12 18 31 -16 46
-38 134 -195 l83 -148 -12 -131 c-7 -72 -10 -132 -7 -135 5 -5 11 32 31 177
l15 105 -81 163 c-56 115 -92 175 -120 202 -22 22 -39 43 -36 47 3 4 -1 36 -8
69 -8 41 -10 77 -4 105 13 71 10 116 -12 191 -25 81 -22 147 11 242 11 33 20
71 20 86 0 32 59 131 122 204 42 48 151 142 218 188 14 9 20 17 14 17 -6 1
-46 -23 -89 -53z"/>
<path d="M3064 3851 c-33 -16 -86 -45 -117 -64 -31 -20 -62 -34 -69 -32 -16 6
-86 -88 -130 -173 -45 -90 -48 -155 -13 -269 28 -87 73 -183 88 -183 4 0 7 9
7 20 0 12 7 35 16 51 18 36 28 31 75 -42 39 -62 49 -57 16 8 -14 26 -37 83
-52 125 -24 68 -27 89 -23 162 4 74 8 91 39 140 18 31 80 108 137 171 56 63
99 115 95 115 -4 -1 -35 -14 -69 -29z"/>
<path d="M3200 3758 c-105 -51 -221 -161 -265 -251 -39 -82 -44 -178 -13 -267
21 -58 26 -65 52 -68 l30 -4 -36 40 c-29 32 -38 52 -43 95 -9 69 14 163 58
236 43 72 151 170 237 215 38 20 70 39 70 42 0 6 1 7 -90 -38z"/>
<path d="M3941 3149 c209 -204 469 -434 469 -414 0 3 -13 35 -30 71 -35 77
-86 164 -150 253 -43 60 -52 67 -170 126 -69 34 -156 72 -194 83 l-68 21 143
-140z"/>
<path d="M4275 3117 c-18 -10 -15 -12 25 -18 25 -4 46 -6 47 -5 1 1 -10 9 -25
18 -22 13 -32 14 -47 5z"/>
<path d="M4221 2234 c0 -11 3 -14 6 -6 3 7 2 16 -1 19 -3 4 -6 -2 -5 -13z"/>
<path d="M3130 1945 c-14 -8 -20 -14 -15 -14 6 0 21 6 35 14 14 8 21 14 15 14
-5 0 -21 -6 -35 -14z"/>
<path d="M3090 1880 c-8 -5 -55 -24 -103 -41 -85 -31 -130 -57 -65 -39 88 26
229 89 198 89 -8 1 -22 -4 -30 -9z"/>
<path d="M3740 1866 c0 -2 7 -7 16 -10 8 -3 12 -2 9 4 -6 10 -25 14 -25 6z"/>
<path d="M2828 1718 c6 -6 18 -8 28 -6 14 3 12 5 -9 10 -19 3 -25 2 -19 -4z"/>
<path d="M3067 1400 c-4 -19 -16 -43 -26 -55 -17 -19 -51 -106 -51 -129 0 -6
16 14 35 44 34 54 61 138 53 162 -3 7 -8 -3 -11 -22z"/>
  </g>
</svg>


